<svg width="61" height="25" viewBox="0 0 61 25" fill="none" xmlns="http://www.w3.org/2000/svg">
<path fill-rule="evenodd" clip-rule="evenodd" d="M8.37142 23.9568V11.2874H12.9914V7.49965H8.37142V6.29149C8.37142 4.98537 9.23766 4.13639 10.5531 4.13639H12.9914V0.348633H9.94349C6.3181 0.348633 3.91187 2.60169 3.91187 6.03026V7.49965H0.799805V11.2874H3.91187V23.9568H8.37142ZM21.0213 24.218C25.9942 24.218 29.5554 20.6262 29.5554 15.7282C29.5554 10.8303 25.9942 7.23843 21.0213 7.23843C16.0484 7.23843 12.4872 10.8303 12.4872 15.7282C12.4872 20.6262 16.0484 24.218 21.0213 24.218ZM16.9789 15.7282C16.9789 18.4384 18.6151 20.2997 21.0213 20.2997C23.4276 20.2997 25.0638 18.4384 25.0638 15.7282C25.0638 12.9854 23.4276 11.1241 21.0213 11.1241C18.6151 11.1241 16.9789 12.9854 16.9789 15.7282ZM35.5641 23.9568V0.348633H31.1046V23.9568H35.5641ZM37.9475 7.49965H42.4391V23.9568H37.9475V7.49965ZM52.2657 24.218C57.2386 24.218 60.7998 20.6262 60.7998 15.7282C60.7998 10.8303 57.2386 7.23843 52.2657 7.23843C47.2928 7.23843 43.7316 10.8303 43.7316 15.7282C43.7316 20.6262 47.2928 24.218 52.2657 24.218ZM48.2232 15.7282C48.2232 18.4384 49.8595 20.2997 52.2657 20.2997C54.6719 20.2997 56.3082 18.4384 56.3082 15.7282C56.3082 12.9854 54.6719 11.1241 52.2657 11.1241C49.8595 11.1241 48.2232 12.9854 48.2232 15.7282Z" fill="white"/>
</svg>
