<svg width="24" height="25" viewBox="0 0 24 25" fill="none" xmlns="http://www.w3.org/2000/svg">
<g clip-path="url(#clip0_69_143)">
<circle cx="12" cy="12.7778" r="12" fill="url(#paint0_linear_69_143)"/>
<path d="M11.6299 18.0239C13.7695 18.0239 15.2939 16.561 15.2939 14.5581V14.5444C15.2939 12.6714 13.9678 11.2905 12.0742 11.2905C10.7207 11.2905 9.85938 11.981 9.49707 12.7603H9.36035C9.39453 10.7642 10.0439 9.1167 11.6709 9.1167C12.5391 9.1167 13.1475 9.56787 13.4072 10.2583L13.4346 10.3267H15.1641L15.1504 10.2515C14.8359 8.74072 13.4824 7.66748 11.6709 7.66748C9.18945 7.66748 7.69238 9.63623 7.69238 12.9585V12.9722C7.69238 16.5269 9.52441 18.0239 11.6299 18.0239ZM9.66797 14.5786V14.5649C9.66797 13.4507 10.5225 12.644 11.6367 12.644C12.7578 12.644 13.5713 13.4644 13.5713 14.606V14.6196C13.5713 15.7202 12.71 16.5884 11.6162 16.5884C10.5225 16.5884 9.66797 15.7065 9.66797 14.5786Z" fill="white"/>
</g>
<defs>
<linearGradient id="paint0_linear_69_143" x1="0" y1="0.777832" x2="0" y2="24.7778" gradientUnits="userSpaceOnUse">
<stop stop-color="#3A8FFF"/>
<stop offset="1" stop-color="#0837AE"/>
</linearGradient>
<clipPath id="clip0_69_143">
<rect width="24" height="24" fill="white" transform="translate(0 0.777832)"/>
</clipPath>
</defs>
</svg>
