<svg width="119" height="29" viewBox="0 0 119 29" fill="none" xmlns="http://www.w3.org/2000/svg">
<g clip-path="url(#clip0_1_4693)">
<rect width="118.044" height="28.4444" rx="14.2222" fill="#908CFF"/>
<path d="M17.6499 17.8223H18.9041V14.9591H21.845V13.9382H18.9041V11.8625H22.1221V10.8077H17.6499V17.8223ZM25.661 17.9292C27.1048 17.9292 27.8145 17.098 27.9846 16.4125L27.9992 16.3688H26.8471L26.8325 16.4028C26.7159 16.6459 26.3416 16.9764 25.6853 16.9764C24.8638 16.9764 24.3485 16.4223 24.3339 15.4695H28.0478V15.0709C28.0478 13.4667 27.1145 12.407 25.6027 12.407C24.0909 12.407 23.1235 13.5007 23.1235 15.173V15.1778C23.1235 16.8695 24.0812 17.9292 25.661 17.9292ZM25.6173 13.3549C26.293 13.3549 26.7839 13.7875 26.8666 14.6577H24.3437C24.436 13.8118 24.9416 13.3549 25.6173 13.3549ZM30.7069 17.9098C31.4069 17.9098 31.9707 17.6084 32.2624 17.0931H32.345V17.8223H33.5409V14.191C33.5409 13.0681 32.7728 12.407 31.4069 12.407C30.143 12.407 29.2874 13 29.1707 13.8945L29.1659 13.9382H30.3082L30.3131 13.9188C30.4346 13.5688 30.7944 13.3695 31.3485 13.3695C31.9999 13.3695 32.345 13.6612 32.345 14.191V14.648L30.9791 14.7306C29.686 14.8084 28.9617 15.3625 28.9617 16.3105V16.3202C28.9617 17.2875 29.6957 17.9098 30.7069 17.9098ZM30.1575 16.2618V16.2521C30.1575 15.8146 30.4735 15.5667 31.1492 15.523L32.345 15.4452V15.873C32.345 16.5049 31.8055 16.9813 31.0763 16.9813C30.5416 16.9813 30.1575 16.7139 30.1575 16.2618ZM37.0846 17.8466C37.318 17.8466 37.5416 17.8271 37.7166 17.7931V16.8598C37.5707 16.8743 37.4784 16.8792 37.3082 16.8792C36.8027 16.8792 36.5937 16.6556 36.5937 16.1257V13.4473H37.7166V12.5091H36.5937V11.2063H35.3638V12.5091H34.5374V13.4473H35.3638V16.4125C35.3638 17.4382 35.8645 17.8466 37.0846 17.8466ZM40.6819 17.9292C41.4499 17.9292 41.9895 17.5841 42.2374 17.0153H42.32V17.8223H43.5305V12.5091H42.32V15.6056C42.32 16.4028 41.902 16.9084 41.1194 16.9084C40.3902 16.9084 40.0839 16.4903 40.0839 15.6688V12.5091H38.8735V15.9459C38.8735 17.2098 39.486 17.9292 40.6819 17.9292ZM45.0082 17.8223H46.2187V14.7355C46.2187 13.9771 46.7485 13.4959 47.5555 13.4959C47.7645 13.4959 47.9638 13.525 48.1582 13.5639V12.4799C48.0416 12.4459 47.852 12.4216 47.6673 12.4216C46.9673 12.4216 46.4812 12.757 46.3013 13.3257H46.2187V12.5091H45.0082V17.8223ZM51.2888 17.9292C52.7325 17.9292 53.4423 17.098 53.6124 16.4125L53.627 16.3688H52.4749L52.4603 16.4028C52.3437 16.6459 51.9694 16.9764 51.3131 16.9764C50.4916 16.9764 49.9763 16.4223 49.9617 15.4695H53.6756V15.0709C53.6756 13.4667 52.7423 12.407 51.2305 12.407C49.7187 12.407 48.7513 13.5007 48.7513 15.173V15.1778C48.7513 16.8695 49.7089 17.9292 51.2888 17.9292ZM51.245 13.3549C51.9207 13.3549 52.4117 13.7875 52.4944 14.6577H49.9714C50.0638 13.8118 50.5694 13.3549 51.245 13.3549ZM56.8013 17.9098C57.5499 17.9098 58.1235 17.5695 58.4152 16.991H58.4978V17.8223H59.7131V10.4528H58.4978V13.3549H58.4152C58.1381 12.7813 57.5305 12.4216 56.8013 12.4216C55.4548 12.4216 54.6235 13.4716 54.6235 15.1632V15.173C54.6235 16.8549 55.4694 17.9098 56.8013 17.9098ZM57.1805 16.8889C56.3541 16.8889 55.8534 16.2424 55.8534 15.173V15.1632C55.8534 14.0938 56.3589 13.4424 57.1805 13.4424C58.002 13.4424 58.5173 14.0987 58.5173 15.1632V15.173C58.5173 16.2375 58.0069 16.8889 57.1805 16.8889ZM64.0152 17.8223H65.2694V15.5035H66.8152C68.2395 15.5035 69.202 14.5605 69.202 13.1605V13.1507C69.202 11.7459 68.2395 10.8077 66.8152 10.8077H64.0152V17.8223ZM66.5089 11.8334C67.4082 11.8334 67.9332 12.3146 67.9332 13.1556V13.1653C67.9332 14.0063 67.4082 14.4924 66.5089 14.4924H65.2694V11.8334H66.5089ZM70.461 17.8223H71.6714V14.7355C71.6714 13.9771 72.2013 13.4959 73.0082 13.4959C73.2173 13.4959 73.4166 13.525 73.611 13.5639V12.4799C73.4944 12.4459 73.3048 12.4216 73.12 12.4216C72.42 12.4216 71.9339 12.757 71.7541 13.3257H71.6714V12.5091H70.461V17.8223ZM76.761 17.9292C78.3506 17.9292 79.318 16.8889 79.318 15.1681V15.1584C79.318 13.4473 78.3457 12.407 76.761 12.407C75.1812 12.407 74.2041 13.4521 74.2041 15.1584V15.1681C74.2041 16.8889 75.1666 17.9292 76.761 17.9292ZM76.761 16.9473C75.92 16.9473 75.4388 16.291 75.4388 15.173V15.1632C75.4388 14.0452 75.92 13.3841 76.761 13.3841C77.5971 13.3841 78.0784 14.0452 78.0784 15.1632V15.173C78.0784 16.291 77.602 16.9473 76.761 16.9473ZM82.4485 17.9098C83.1971 17.9098 83.7707 17.5695 84.0624 16.991H84.145V17.8223H85.3603V10.4528H84.145V13.3549H84.0624C83.7853 12.7813 83.1777 12.4216 82.4485 12.4216C81.102 12.4216 80.2707 13.4716 80.2707 15.1632V15.173C80.2707 16.8549 81.1166 17.9098 82.4485 17.9098ZM82.8277 16.8889C82.0013 16.8889 81.5006 16.2424 81.5006 15.173V15.1632C81.5006 14.0938 82.0062 13.4424 82.8277 13.4424C83.6492 13.4424 84.1645 14.0987 84.1645 15.1632V15.173C84.1645 16.2375 83.6541 16.8889 82.8277 16.8889ZM88.6416 17.9292C89.4096 17.9292 89.9492 17.5841 90.1971 17.0153H90.2798V17.8223H91.4902V12.5091H90.2798V15.6056C90.2798 16.4028 89.8617 16.9084 89.0791 16.9084C88.3499 16.9084 88.0437 16.4903 88.0437 15.6688V12.5091H86.8332V15.9459C86.8332 17.2098 87.4457 17.9292 88.6416 17.9292ZM95.2478 17.9292C96.5944 17.9292 97.377 17.2049 97.552 16.116L97.5617 16.0771L96.4194 16.082L96.4096 16.1014C96.2589 16.6605 95.8749 16.9473 95.2478 16.9473C94.4263 16.9473 93.9353 16.2862 93.9353 15.1584V15.1487C93.9353 14.0355 94.4214 13.3841 95.2478 13.3841C95.9089 13.3841 96.3027 13.7535 96.4145 14.2688L96.4194 14.2834H97.5617V14.2639C97.4256 13.1653 96.6089 12.407 95.243 12.407C93.6437 12.407 92.7055 13.4327 92.7055 15.1487V15.1584C92.7055 16.8938 93.6485 17.9292 95.2478 17.9292ZM100.872 17.8466C101.105 17.8466 101.329 17.8271 101.504 17.7931V16.8598C101.358 16.8743 101.266 16.8792 101.096 16.8792C100.59 16.8792 100.381 16.6556 100.381 16.1257V13.4473H101.504V12.5091H100.381V11.2063H99.1513V12.5091H98.3249V13.4473H99.1513V16.4125C99.1513 17.4382 99.652 17.8466 100.872 17.8466Z" fill="white"/>
</g>
<defs>
<clipPath id="clip0_1_4693">
<rect width="119" height="29" fill="white"/>
</clipPath>
</defs>
</svg>
